<svg width="125.621521" height="78.110413" viewBox="0 0 125.622 78.1104" fill="none" xmlns="http://www.w3.org/2000/svg" xmlns:xlink="http://www.w3.org/1999/xlink">
	<desc>
			Created with Pixso.
	</desc>
	<defs>
		<linearGradient x1="125.621521" y1="0.000000" x2="0.000004" y2="78.110428" id="paint_linear_2_4_0" gradientUnits="userSpaceOnUse">
			<stop stop-color="#FFE600"/>
			<stop offset="1.000000" stop-color="#F90000" stop-opacity="0.478431"/>
		</linearGradient>
	</defs>
	<path id="矢量 1" d="M44 77.5C75.25 71.14 128.5 17.91 125.5 13C122 7.91 108.5 0 94 0C79.5 0 67.5 44.22 44 53.84C20.5 63.47 0 38.5 0 38.5C0 38.5 12.75 83.85 44 77.5Z" fill="url(#paint_linear_2_4_0)" fill-opacity="1.000000" fill-rule="evenodd"/>
	<path id="矢量 1" d="M125.5 13C122 7.91 108.5 0 94 0C79.5 0 67.5 44.22 44 53.84C20.5 63.47 0 38.5 0 38.5C0 38.5 12.75 83.85 44 77.5C75.25 71.14 128.5 17.91 125.5 13Z" stroke="#000000" stroke-opacity="0" stroke-width="1.000000"/>
</svg>
